<svg xmlns="http://www.w3.org/2000/svg" viewBox="0 0 64 64" aria-label="Dragons and Distractions">
  <rect width="64" height="64" rx="10" fill="#0a0804"/>
  <circle cx="32" cy="32" r="22" fill="none" stroke="#3d2e1a" stroke-width="1.5"/>
  <path d="M14 40c4-8 10-14 18-14 6 0 10 3 14 8 0 0-6-3-12-1-8 3-14 9-20 14 0-3 0-5 0-7z" fill="#c8900a"/>
  <path d="M32 24c-2-3-2-6 0-9 1 2 2 4 2 6 0 1-1 2-2 3z" fill="#f5c842"/>
  <circle cx="40" cy="30" r="1.6" fill="#0a0804"/>
  <path d="M22 46c2-1 4-2 7-2" stroke="#4cc8c8" stroke-width="1.3" stroke-linecap="round" fill="none" opacity="0.7"/>
</svg>
